<?xml version="1.0" encoding="UTF-8" standalone="no"?><!DOCTYPE svg PUBLIC "-//W3C//DTD SVG 1.1//EN" "http://www.w3.org/Graphics/SVG/1.1/DTD/svg11.dtd"><!-- Generated by graphviz version 2.40.1 (20161225.0304)
 --><!-- Title: G Pages: 1 --><svg xmlns="http://www.w3.org/2000/svg" xmlns:xlink="http://www.w3.org/1999/xlink" width="332pt" height="260pt" viewBox="0.00 0.00 332.41 260.00">
<g id="graph0" class="graph" transform="scale(1 1) rotate(0) translate(4 256)">
<title>G</title>
<polygon fill="#ffffff" stroke="transparent" points="-4,4 -4,-256 328.4098,-256 328.4098,4 -4,4"/>
<!-- 13 -->
<g id="node1" class="node">
<title>13</title>
<ellipse fill="none" stroke="#000000" cx="63" cy="-90" rx="27" ry="18"/>
<text text-anchor="middle" x="63" y="-85.8" font-family="Times,serif" font-size="14.00" fill="#000000">13</text>
</g>
<!-- f(5) -->
<g id="node2" class="node">
<title>f(5)</title>
<ellipse fill="none" stroke="#000000" cx="27" cy="-18" rx="27" ry="18"/>
<text text-anchor="middle" x="27" y="-13.8" font-family="Times,serif" font-size="14.00" fill="#000000">f(5)</text>
</g>
<!-- 13&#45;&gt;f(5) -->
<g id="edge1" class="edge">
<title>13-&gt;f(5)</title>
<path fill="none" stroke="#000000" d="M54.2854,-72.5708C50.0403,-64.0807 44.8464,-53.6929 40.1337,-44.2674"/>
<polygon fill="#000000" stroke="#000000" points="43.237,-42.6477 35.6343,-35.2687 36.976,-45.7782 43.237,-42.6477"/>
</g>
<!-- c(8) -->
<g id="node3" class="node">
<title>c(8)</title>
<ellipse fill="none" stroke="#000000" cx="99" cy="-18" rx="27" ry="18"/>
<text text-anchor="middle" x="99" y="-13.8" font-family="Times,serif" font-size="14.00" fill="#000000">c(8)</text>
</g>
<!-- 13&#45;&gt;c(8) -->
<g id="edge2" class="edge">
<title>13-&gt;c(8)</title>
<path fill="none" stroke="#000000" d="M71.7146,-72.5708C75.9597,-64.0807 81.1536,-53.6929 85.8663,-44.2674"/>
<polygon fill="#000000" stroke="#000000" points="89.024,-45.7782 90.3657,-35.2687 82.763,-42.6477 89.024,-45.7782"/>
</g>
<!-- 23 -->
<g id="node4" class="node">
<title>23</title>
<ellipse fill="none" stroke="#000000" cx="217" cy="-90" rx="27" ry="18"/>
<text text-anchor="middle" x="217" y="-85.8" font-family="Times,serif" font-size="14.00" fill="#000000">23</text>
</g>
<!-- b(11) -->
<g id="node5" class="node">
<title>b(11)</title>
<ellipse fill="none" stroke="#000000" cx="196" cy="-18" rx="31.9031" ry="18"/>
<text text-anchor="middle" x="196" y="-13.8" font-family="Times,serif" font-size="14.00" fill="#000000">b(11)</text>
</g>
<!-- 23&#45;&gt;b(11) -->
<g id="edge3" class="edge">
<title>23-&gt;b(11)</title>
<path fill="none" stroke="#000000" d="M211.809,-72.2022C209.4616,-64.1541 206.6338,-54.4588 204.0228,-45.5067"/>
<polygon fill="#000000" stroke="#000000" points="207.3641,-44.4625 201.2041,-35.8425 200.6441,-46.4226 207.3641,-44.4625"/>
</g>
<!-- a(12) -->
<g id="node6" class="node">
<title>a(12)</title>
<ellipse fill="none" stroke="#000000" cx="277" cy="-18" rx="31.3198" ry="18"/>
<text text-anchor="middle" x="277" y="-13.8" font-family="Times,serif" font-size="14.00" fill="#000000">a(12)</text>
</g>
<!-- 23&#45;&gt;a(12) -->
<g id="edge4" class="edge">
<title>23-&gt;a(12)</title>
<path fill="none" stroke="#000000" d="M230.3159,-74.0209C238.0526,-64.7368 247.96,-52.848 256.6558,-42.413"/>
<polygon fill="#000000" stroke="#000000" points="259.5922,-44.3565 263.3053,-34.4336 254.2146,-39.8752 259.5922,-44.3565"/>
</g>
<!-- 30 -->
<g id="node7" class="node">
<title>30</title>
<ellipse fill="none" stroke="#000000" cx="140" cy="-162" rx="27" ry="18"/>
<text text-anchor="middle" x="140" y="-157.8" font-family="Times,serif" font-size="14.00" fill="#000000">30</text>
</g>
<!-- 30&#45;&gt;13 -->
<g id="edge5" class="edge">
<title>30-&gt;13</title>
<path fill="none" stroke="#000000" d="M124.0456,-147.0816C113.205,-136.945 98.6824,-123.3654 86.5218,-111.9944"/>
<polygon fill="#000000" stroke="#000000" points="88.6288,-109.1728 78.934,-104.8993 83.8478,-114.2858 88.6288,-109.1728"/>
</g>
<!-- d(17) -->
<g id="node8" class="node">
<title>d(17)</title>
<ellipse fill="none" stroke="#000000" cx="140" cy="-90" rx="31.9031" ry="18"/>
<text text-anchor="middle" x="140" y="-85.8" font-family="Times,serif" font-size="14.00" fill="#000000">d(17)</text>
</g>
<!-- 30&#45;&gt;d(17) -->
<g id="edge6" class="edge">
<title>30-&gt;d(17)</title>
<path fill="none" stroke="#000000" d="M140,-143.8314C140,-136.131 140,-126.9743 140,-118.4166"/>
<polygon fill="#000000" stroke="#000000" points="143.5001,-118.4132 140,-108.4133 136.5001,-118.4133 143.5001,-118.4132"/>
</g>
<!-- 47 -->
<g id="node9" class="node">
<title>47</title>
<ellipse fill="none" stroke="#000000" cx="217" cy="-162" rx="27" ry="18"/>
<text text-anchor="middle" x="217" y="-157.8" font-family="Times,serif" font-size="14.00" fill="#000000">47</text>
</g>
<!-- 47&#45;&gt;23 -->
<g id="edge7" class="edge">
<title>47-&gt;23</title>
<path fill="none" stroke="#000000" d="M217,-143.8314C217,-136.131 217,-126.9743 217,-118.4166"/>
<polygon fill="#000000" stroke="#000000" points="220.5001,-118.4132 217,-108.4133 213.5001,-118.4133 220.5001,-118.4132"/>
</g>
<!-- e(24) -->
<g id="node10" class="node">
<title>e(24)</title>
<ellipse fill="none" stroke="#000000" cx="293" cy="-90" rx="31.3198" ry="18"/>
<text text-anchor="middle" x="293" y="-85.8" font-family="Times,serif" font-size="14.00" fill="#000000">e(24)</text>
</g>
<!-- 47&#45;&gt;e(24) -->
<g id="edge8" class="edge">
<title>47-&gt;e(24)</title>
<path fill="none" stroke="#000000" d="M232.7472,-147.0816C243.233,-137.1477 257.2091,-123.9072 269.0608,-112.6793"/>
<polygon fill="#000000" stroke="#000000" points="271.6318,-115.0648 276.4842,-105.6465 266.8176,-109.9831 271.6318,-115.0648"/>
</g>
<!-- 77 -->
<g id="node11" class="node">
<title>77</title>
<ellipse fill="none" stroke="#000000" cx="178" cy="-234" rx="27" ry="18"/>
<text text-anchor="middle" x="178" y="-229.8" font-family="Times,serif" font-size="14.00" fill="#000000">77</text>
</g>
<!-- 77&#45;&gt;30 -->
<g id="edge9" class="edge">
<title>77-&gt;30</title>
<path fill="none" stroke="#000000" d="M168.9945,-216.937C164.5172,-208.4537 159.0048,-198.0092 153.993,-188.513"/>
<polygon fill="#000000" stroke="#000000" points="156.9678,-186.6509 149.2048,-179.4407 150.7771,-189.9182 156.9678,-186.6509"/>
</g>
<!-- 77&#45;&gt;47 -->
<g id="edge10" class="edge">
<title>77-&gt;47</title>
<path fill="none" stroke="#000000" d="M187.2425,-216.937C191.9537,-208.2393 197.7817,-197.4799 203.0278,-187.7948"/>
<polygon fill="#000000" stroke="#000000" points="206.1385,-189.4005 207.8239,-178.9405 199.9835,-186.0664 206.1385,-189.4005"/>
</g>
</g>
</svg>